# xmcd
#
# Track frame offsets: 
#        200
#        10862
#        22812
#        36502
#        49587
#        61237
#        74462
#        88097
#        97862
#        110112
#        121912
#        136102
#        149462
#        163440
#        176675
#        191712
#        206575
#        220287
#        230862
#        242377
#        255022
#        267047
#        279562
#        291662
#        305297
#        316935
#
# Disc length: 4398 seconds
#
# Revision: 3
# Processed by: cddbd v1.5.2PL0 Copyright (c) Steve Scherf et al.
# Submitted via: ExactAudioCopy v1.3
#
DISCID=7f112c1a
DTITLE=Various Artist - Rhino Atlantic Remasters Collection CD Sampler Disc 2
DYEAR=1992
DGENRE=Pop
TTITLE0=Carla Thomas - Gee Whiz
TTITLE1=Mar-Keys - Last Night
TTITLE2=William Bell - You Don't Miss Your Water
TTITLE3=Booker T. And The MGs - Green Onions
TTITLE4=Rufus Thomas - Walking The Dog
TTITLE5=Otis Redding - I've Been Loving You Too Long
TTITLE6=Astors - Candy
TTITLE7=Otis Redding - Respect
TTITLE8=Mad Lads - I Want Someone
TTITLE9=Sam And Dave - Hold On I'm Comin'
TTITLE10=Albert King - Laundromat Blues
TTITLE11=Mable John - Your Good Thing (Is About To End)
TTITLE12=Eddie Floyd - Knock On Wood
TTITLE13=Carla Thomas - B-A-B-Y
TTITLE14=Otis Redding - Try A Little Tenderness
TTITLE15=Sam And Dave - When Something Is Wrong With My Baby
TTITLE16=Otis Redding And Carla Thomas - Tramp
TTITLE17=Bar-Kays - Soul Finger
TTITLE18=Otis Redding - Shake
TTITLE19=Albert King - Born Under A Bad Sign
TTITLE20=Sam And Dave - Soul Man
TTITLE21=Sam And Dave - I Thank You
TTITLE22=Otis Redding - (Sittin' On) The Dock Of The Bay
TTITLE23=Eddie Floyd - Big Bird
TTITLE24=Johnnie Taylor - Next Time
TTITLE25=William Bell - A Tribute To A King
EXTD=
EXTT0=
EXTT1=
EXTT2=
EXTT3=
EXTT4=
EXTT5=
EXTT6=
EXTT7=
EXTT8=
EXTT9=
EXTT10=
EXTT11=
EXTT12=
EXTT13=
EXTT14=
EXTT15=
EXTT16=
EXTT17=
EXTT18=
EXTT19=
EXTT20=
EXTT21=
EXTT22=
EXTT23=
EXTT24=
EXTT25=
PLAYORDER=
